<svg width="25" height="25" viewBox="0 0 25 25" fill="none" xmlns="http://www.w3.org/2000/svg">
<path d="M12.5 15.51C14.1624 15.51 15.51 14.1624 15.51 12.5C15.51 10.8376 14.1624 9.48999 12.5 9.48999C10.8376 9.48999 9.48999 10.8376 9.48999 12.5C9.48999 14.1624 10.8376 15.51 12.5 15.51Z" stroke="#7D8082" stroke-width="1.3" stroke-miterlimit="10"/>
<path d="M22.23 12.5L17.3 8.37003C15.9483 7.24782 14.2468 6.63354 12.49 6.63354C10.7332 6.63354 9.03166 7.24782 7.67999 8.37003L2.76999 12.5L7.69999 16.63C9.05166 17.7522 10.7532 18.3665 12.51 18.3665C14.2668 18.3665 15.9683 17.7522 17.32 16.63L22.23 12.5Z" stroke="#7D8082" stroke-width="1.3" stroke-miterlimit="10"/>
</svg>
