<svg width="25" height="25" viewBox="0 0 25 25" fill="none" xmlns="http://www.w3.org/2000/svg">
<path d="M9.85999 12.52H20.98" stroke="#7D8082" stroke-width="1.3" stroke-miterlimit="10"/>
<path d="M9.85999 6.03003H20.98" stroke="#7D8082" stroke-width="1.3" stroke-miterlimit="10"/>
<path d="M5.66999 7.68C6.58126 7.68 7.31999 6.94127 7.31999 6.03C7.31999 5.11874 6.58126 4.38 5.66999 4.38C4.75872 4.38 4.01999 5.11874 4.01999 6.03C4.01999 6.94127 4.75872 7.68 5.66999 7.68Z" stroke="#7D8082" stroke-width="1.2" stroke-miterlimit="10"/>
<path d="M5.66999 14.14C6.58126 14.14 7.31999 13.4012 7.31999 12.49C7.31999 11.5787 6.58126 10.84 5.66999 10.84C4.75872 10.84 4.01999 11.5787 4.01999 12.49C4.01999 13.4012 4.75872 14.14 5.66999 14.14Z" stroke="#7D8082" stroke-width="1.2" stroke-miterlimit="10"/>
<path d="M9.85999 19.04H20.98" stroke="#7D8082" stroke-width="1.3" stroke-miterlimit="10"/>
<path d="M5.66999 20.66C6.58126 20.66 7.31999 19.9213 7.31999 19.01C7.31999 18.0987 6.58126 17.36 5.66999 17.36C4.75872 17.36 4.01999 18.0987 4.01999 19.01C4.01999 19.9213 4.75872 20.66 5.66999 20.66Z" stroke="#7D8082" stroke-width="1.2" stroke-miterlimit="10"/>
</svg>
