<svg width="25" height="25" viewBox="0 0 25 25" fill="none" xmlns="http://www.w3.org/2000/svg">
<path d="M13.63 7.14001L9.58002 12.55H14.65L10.51 17.98" stroke="#7D8082" stroke-width="1.3" stroke-miterlimit="10"/>
<path d="M16.35 5.27002H18.35C19.0061 5.28835 19.6281 5.56597 20.0798 6.04207C20.5315 6.51817 20.7761 7.15392 20.76 7.81002V17.26C20.7693 17.5857 20.7144 17.9101 20.5983 18.2145C20.4822 18.519 20.3072 18.7976 20.0834 19.0344C19.8596 19.2712 19.5913 19.4616 19.2939 19.5947C18.9965 19.7278 18.6757 19.801 18.35 19.81H16.35" stroke="#7D8082" stroke-width="1.3" stroke-miterlimit="10"/>
<path d="M7.63001 19.81H5.63001C5.30429 19.801 4.98355 19.7278 4.68612 19.5947C4.38869 19.4616 4.1204 19.2712 3.89659 19.0344C3.67278 18.7976 3.49782 18.519 3.38173 18.2145C3.26564 17.9101 3.21069 17.5857 3.22001 17.26V7.81002C3.21204 7.48184 3.26931 7.15534 3.3885 6.84946C3.50768 6.54358 3.68641 6.26441 3.91432 6.02813C4.14222 5.79185 4.41477 5.60318 4.71615 5.47304C5.01753 5.3429 5.34175 5.27389 5.67001 5.27002H7.67001" stroke="#7D8082" stroke-width="1.3" stroke-miterlimit="10"/>
<path d="M20.17 9.62H23.76V15.19H20.17" stroke="#7D8082" stroke-width="1.3" stroke-miterlimit="10"/>
</svg>
