<svg width="185" height="22" viewBox="0 0 185 22" fill="none" xmlns="http://www.w3.org/2000/svg">
<g clip-path="url(#clip0_56_426)">
<path d="M114.099 0.873974H60.6283L56.8677 6.12212H80.3098L69.8026 20.9237L69.6858 21.0873H80.8551L91.4748 6.12212H110.338L114.099 0.873974Z" fill="black"/>
<path d="M120.95 0.873974L106.76 20.9237L106.643 21.0873H117.189L127.809 6.12212H145.452L134.945 20.9237L134.828 21.0873H145.37L155.916 6.12212H173.473L162.849 21.0873H173.395L184.049 6.07906L184.106 6.00157L177.9 0.899806L177.87 0.873974H120.95Z" fill="black"/>
<path d="M32.9624 0.0344011C16.466 -0.314327 7.3652 1.92013 2.54435 7.50408C1.81318 8.39071 1.16701 9.34345 0.614286 10.3499C0.176834 11.1876 -0.0329304 12.1245 0.0057829 13.0677C0.0444962 14.0109 0.330347 14.9277 0.834993 15.7272C2.17219 17.9315 6.29631 21.6728 18.9326 21.9483C20.5295 21.9827 22.0484 22 23.4982 22C31.3915 22 37.1601 21.479 41.4314 20.3898C46.1094 19.1972 49.3031 17.2685 51.7914 14.1385L52.2242 13.5616H38.982L38.9517 13.5874C36.9048 15.3096 33.4082 16.8939 21.8148 16.6657C14.2676 16.5193 11.723 14.9049 10.9138 13.5745C10.6717 13.1522 10.5425 12.6751 10.5387 12.1889C10.5349 11.7027 10.6566 11.2236 10.8921 10.7976C11.3833 9.87939 12.0439 9.06148 12.8395 8.38666C15.9986 5.49782 23.7362 5.20075 30.1236 5.26102C38.7137 5.34282 41.2107 7.37491 41.8857 8.24458C42.0068 8.3744 42.0991 8.52815 42.1565 8.69579C42.2139 8.86343 42.2352 9.04121 42.219 9.21758L42.1887 9.34673H54.3663L54.3879 9.26924C54.5221 8.76552 54.4658 7.54712 53.3839 6.09194C49.632 1.11503 38.9733 0.159254 32.9538 0.0344011" fill="black"/>
</g>
<defs>
<clipPath id="clip0_56_426">
<rect width="184.105" height="22" fill="white"/>
</clipPath>
</defs>
</svg>
